<?xml version="1.0" encoding="UTF-8"?>
<svg width="1024px" height="768px" viewBox="0 0 1024 768" version="1.1" xmlns="http://www.w3.org/2000/svg" xmlns:xlink="http://www.w3.org/1999/xlink">
    <!-- Generator: Sketch 51 (57462) - http://www.bohemiancoding.com/sketch -->
    <title>20180710南京路演示界面@3x</title>
    <desc>Created with Sketch.</desc>
    <defs></defs>
    <g id="20180710南京路演示界面" stroke="none" stroke-width="1" fill="none" fill-rule="evenodd">
        <rect id="白底" fill="#FFFFFF" x="0" y="0" width="1024" height="768"></rect>
        <g id="图名" transform="translate(64.000000, 32.000000)">
            <text id="6TH-FLOOR" font-family="BebasNeue, Bebas Neue" font-size="32" font-weight="normal" letter-spacing="0.7111112" fill="#35536C">
                <tspan x="0" y="29">6TH FLOOR</tspan>
            </text>
            <text id="West-Nanjing-Rd" font-family="PingFangSC-Regular, PingFang SC" font-size="14" font-weight="normal" letter-spacing="0.3111112" fill="#35536C">
                <tspan x="0" y="60">West Nanjing Rd</tspan>
            </text>
            <path d="M1,40 L160.028299,40" id="Path" stroke="#DEDEDE" stroke-width="2"></path>
        </g>
        <g id="建筑" transform="translate(79.000000, 123.000000)">
            <g id="室" fill="#F2F2F2">
                <rect id="Rectangle" x="126" y="0" width="105" height="80"></rect>
                <rect id="Rectangle-Copy-17" x="62" y="203" width="68" height="36"></rect>
                <rect id="Rectangle-Copy-19" x="134" y="203" width="38" height="90"></rect>
                <rect id="Rectangle-Copy-20" x="176" y="203" width="56" height="90"></rect>
                <rect id="Rectangle-Copy-50" x="236" y="267" width="21" height="36"></rect>
                <rect id="Rectangle-Copy-51" x="236" y="233" width="21" height="30"></rect>
                <rect id="Rectangle-Copy-18" x="62" y="243" width="68" height="63"></rect>
                <rect id="Rectangle-Copy-21" x="62" y="310" width="56" height="61"></rect>
                <rect id="Rectangle-Copy-22" x="120" y="432" width="96" height="107"></rect>
                <path d="M289,432 L328,432 L328,417 L381,417 L381,489 L323,489 L323,539 L220,539 L220,432 L289,432 Z" id="Combined-Shape"></path>
                <rect id="Rectangle-Copy-10" x="0" y="168" width="40" height="80"></rect>
                <rect id="Rectangle-Copy-11" x="0" y="252" width="40" height="40"></rect>
                <rect id="Rectangle-Copy-12" x="0" y="302" width="40" height="43"></rect>
                <rect id="Rectangle-Copy-13" x="0" y="349" width="40" height="69"></rect>
                <path d="M45,421 L45,388 L68,388 L68,421 L68,503 L28,503 L28,476 L0,476 L0,421 L28,421 L45,421 Z" id="Combined-Shape"></path>
                <path d="M69,159 L69,185 L44,185 L44,159 L0,159 L0,113 L105,113 L105,159 L69,159 Z" id="Combined-Shape"></path>
                <rect id="Rectangle-Copy" x="235" y="0" width="105" height="61"></rect>
                <rect id="Rectangle-Copy-45" x="274" y="79" width="29" height="36"></rect>
                <rect id="Rectangle-Copy-46" x="275" y="129" width="45" height="56"></rect>
                <rect id="Rectangle-Copy-47" x="275" y="189" width="45" height="71"></rect>
                <rect id="Rectangle-Copy-48" x="275" y="264" width="45" height="36"></rect>
                <rect id="Rectangle-Copy-2" x="344" y="0" width="86" height="61"></rect>
                <path d="M385,539 L327,539 L327,496 L385,496 L385,396 L729,396 L729,539 L385,539 Z" id="Combined-Shape"></path>
                <rect id="Rectangle-Copy-3" x="434" y="0" width="66" height="61"></rect>
                <rect id="Rectangle-Copy-4" x="503" y="0" width="79" height="61"></rect>
                <rect id="Rectangle-Copy-5" x="586" y="0" width="45" height="61"></rect>
                <path d="M681,310 L774,310 L774,372 L681,372 L681,310 Z M782,345 L866,345 L866,475 L782,475 L782,345 Z" id="Combined-Shape"></path>
                <rect id="Rectangle-Copy-58" x="701" y="345" width="113" height="27"></rect>
                <rect id="Rectangle-Copy-31" x="520" y="180" width="137" height="37"></rect>
                <rect id="Rectangle-Copy-32" x="520" y="221" width="137" height="37"></rect>
                <rect id="Rectangle-Copy-35" x="520" y="303" width="48" height="69"></rect>
                <rect id="Rectangle-Copy-49" x="413" y="334" width="29" height="58"></rect>
                <rect id="Rectangle-Copy-36" x="476" y="329" width="40" height="43"></rect>
                <rect id="Rectangle-Copy-37" x="476" y="286" width="40" height="39"></rect>
                <rect id="Rectangle-Copy-38" x="476" y="232" width="40" height="50"></rect>
                <rect id="Rectangle-Copy-39" x="476" y="170" width="40" height="58"></rect>
                <rect id="Rectangle-Copy-40" x="476" y="126" width="40" height="40"></rect>
                <rect id="Rectangle-Copy-41" x="475" y="79" width="41" height="43"></rect>
                <rect id="Rectangle-Copy-42" x="402" y="79" width="69" height="87"></rect>
                <path d="M324,79 L393,79 L393,166 L324,166 L324,115 L307,115 L307,79 L324,79 Z" id="Combined-Shape"></path>
                <path d="M571,146 L657,146 L657,176 L520,176 L520,153 L520,80 L571,80 L571,146 Z" id="Combined-Shape"></path>
            </g>
            <g id="楼梯" transform="translate(71.000000, 113.000000)" fill="#F9F9F9">
                <path d="M184,46 L184,72 L149,72 L149,46 L38,46 L38,0 L184,0 L184,46 Z" id="Combined-Shape"></path>
                <rect id="Rectangle-Copy-59" x="314" y="221" width="24" height="58"></rect>
                <rect id="Rectangle-3" x="254" y="57" width="146" height="130"></rect>
                <rect id="Rectangle-3-Copy" x="662" y="283" width="45" height="84"></rect>
                <rect id="Rectangle-3-Copy-2" x="0" y="283" width="45" height="107"></rect>
            </g>
            <g id="固定" transform="translate(520.000000, 0.000000)" fill="#E2F7FB" opacity="0.5">
                <path d="M345,306 L345,341 L259,341 L259,306 L161,306 L161,98 L345,98 L345,306 Z"></path>
                <rect x="54" y="81" width="83" height="61"></rect>
                <rect x="0" y="262" width="54" height="37"></rect>
                <rect id="固定-copy" x="56" y="262" width="81" height="37"></rect>
                <rect x="52" y="303" width="85" height="69"></rect>
                <path d="M228,61 L228,94 L162,94 L162,61 L115,61 L115,0 L228,0 L228,61 Z"></path>
            </g>
        </g>
        <g id="电话/卡座" transform="translate(153.000000, 284.000000)">
            <rect id="Rectangle-4" stroke="#FA7676" fill="#F5CECE" x="0.5" y="0.5" width="9" height="20"></rect>
            <rect id="Rectangle-4-Copy-11" stroke="#FA7676" fill="#F5CECE" x="11.5" y="0.5" width="9" height="20"></rect>
            <rect id="Rectangle-4-Copy" stroke="#FA7676" fill="#F5CECE" x="28.5" y="0.5" width="9" height="20"></rect>
            <rect id="Rectangle-4-Copy-12" stroke="#00A699" fill-opacity="0.200000018" fill="#00A699" x="39.5" y="0.5" width="9" height="20"></rect>
            <rect id="Rectangle-4-Copy-2" stroke="#FA7676" fill="#F5CECE" x="55.5" y="4.5" width="13" height="13"></rect>
            <rect id="Rectangle-4-Copy-3" stroke="#00A699" fill-opacity="0.200000018" fill="#00A699" x="73.5" y="4.5" width="13" height="13"></rect>
            <rect id="Rectangle-4-Copy-4" stroke="#FA7676" fill="#F5CECE" x="91.5" y="4.5" width="13" height="13"></rect>
            <rect id="Rectangle-4-Copy-5" stroke="#00A699" fill-opacity="0.200000018" fill="#00A699" x="109.5" y="4.5" width="13" height="13"></rect>
            <rect id="Rectangle-4-Copy-6" stroke="#FA7676" fill="#F5CECE" x="127.5" y="4.5" width="13" height="13"></rect>
            <rect id="Rectangle-4-Copy-9" stroke="#00A699" fill="#CCEDEB" x="381.5" y="143.5" width="13" height="13"></rect>
            <rect id="Rectangle-4-Copy-10" stroke="#FA7676" fill="#F5CECE" x="381.5" y="161.5" width="13" height="13"></rect>
            <rect id="Rectangle-4-Copy" stroke="#FA7676" fill="#F5CECE" transform="translate(60.000000, 244.500000) rotate(90.000000) translate(-60.000000, -244.500000) " x="55.5" y="234.5" width="9" height="20"></rect>
            <rect id="Rectangle-4-Copy-15" stroke="#FA7676" fill="#F5CECE" transform="translate(60.000000, 255.500000) rotate(90.000000) translate(-60.000000, -255.500000) " x="55.5" y="245.5" width="9" height="20"></rect>
            <rect id="Rectangle-4-Copy-7" stroke="#00A699" fill-opacity="0.200000018" fill="#00A699" transform="translate(60.000000, 188.500000) rotate(90.000000) translate(-60.000000, -188.500000) " x="55.5" y="178.5" width="9" height="20"></rect>
            <rect id="Rectangle-4-Copy-14" stroke="#00A699" fill-opacity="0.200000018" fill="#00A699" transform="translate(60.000000, 199.500000) rotate(90.000000) translate(-60.000000, -199.500000) " x="55.5" y="189.5" width="9" height="20"></rect>
            <rect id="Rectangle-4-Copy-8" stroke="#FA7676" fill="#F5CECE" transform="translate(60.000000, 168.500000) rotate(90.000000) translate(-60.000000, -168.500000) " x="55.5" y="158.5" width="9" height="20"></rect>
            <rect id="Rectangle-4-Copy-13" stroke="#FA7676" fill="#F5CECE" transform="translate(60.000000, 157.500000) rotate(90.000000) translate(-60.000000, -157.500000) " x="55.5" y="147.5" width="9" height="20"></rect>
        </g>
        <g id="图例" transform="translate(688.000000, 710.000000)">
            <text id="Legend" font-family="PingFang-SC-Regular, PingFang SC" font-size="18" font-weight="normal" letter-spacing="0.4000001" fill="#35536C">
                <tspan x="0" y="19">Legend</tspan>
            </text>
            <text id="Occupied" font-family="PingFang-SC-Light, PingFang SC" font-size="12" font-weight="300" letter-spacing="0.2666668" fill="#35536C">
                <tspan x="121" y="18">Occupied</tspan>
            </text>
            <text id="Vacant" font-family="PingFang-SC-Light, PingFang SC" font-size="12" font-weight="300" letter-spacing="0.2666668" fill="#35536C">
                <tspan x="232" y="18">Vacant</tspan>
            </text>
            <rect id="Rectangle-4" stroke="#FF5A5F" fill-opacity="0.200000018" fill="#FF5A5F" x="89.5" y="1.5" width="23" height="23" rx="4"></rect>
            <rect id="Rectangle-4-Copy" stroke="#00A699" fill-opacity="0.200000018" fill="#00A699" x="200.5" y="1.5" width="23" height="23" rx="4"></rect>
        </g>
        <g id="桌子" transform="translate(352.000000, 128.000000)">
            <g id="Group-4" transform="translate(366.000000, 0.000000)">
                <rect id="桌" stroke="#F39C9C" fill="#FFD6D6" x="0.5" y="0.5" width="11" height="23"></rect>
                <rect id="桌-copy-5" stroke="#00A699" fill-opacity="0.200000018" fill="#00A699" x="0.5" y="25.5" width="11" height="23"></rect>
                <rect id="桌-copy" stroke="#F39C9C" fill="#FFD6D6" x="31.5" y="0.5" width="11" height="23"></rect>
                <rect id="桌-copy-3" stroke="#F39C9C" fill="#FFD6D6" x="31.5" y="25.5" width="11" height="23"></rect>
                <rect id="桌-copy-2" stroke="#F39C9C" fill="#FFD6D6" x="45.5" y="0.5" width="11" height="23"></rect>
                <rect id="桌-copy-6" stroke="#F39C9C" fill="#FFD6D6" x="70.5" y="0.5" width="11" height="23"></rect>
                <rect id="桌-copy-8" stroke="#F39C9C" fill="#FFD6D6" x="93.5" y="25.5" width="11" height="23"></rect>
                <rect id="桌-copy-9" stroke="#F39C9C" fill="#FFD6D6" transform="translate(77.000000, 73.000000) rotate(90.000000) translate(-77.000000, -73.000000) " x="71.5" y="61.5" width="11" height="23"></rect>
                <rect id="桌-copy-4" stroke="#F39C9C" fill="#FFD6D6" x="45.5" y="25.5" width="11" height="23"></rect>
                <rect id="桌-copy-7" stroke="#F39C9C" fill="#FFD6D6" x="70.5" y="25.5" width="11" height="23"></rect>
            </g>
            <g id="Group" transform="translate(425.000000, 166.000000)">
                <rect id="桌-copy-16" stroke="#F39C9C" fill="#FFD6D6" x="14.5" y="0.5" width="11" height="23"></rect>
                <rect id="桌-copy-20" stroke="#F39C9C" fill="#FFD6D6" x="0.5" y="0.5" width="11" height="23"></rect>
                <rect id="桌-copy-17" stroke="#00A699" fill-opacity="0.200000018" fill="#00A699" x="14.5" y="26.5" width="11" height="23"></rect>
                <rect id="桌-copy-21" stroke="#F39C9C" fill="#FFD6D6" x="0.5" y="26.5" width="11" height="23"></rect>
                <rect id="桌-copy-18" stroke="#00A699" fill-opacity="0.200000018" fill="#00A699" x="14.5" y="52.5" width="11" height="23"></rect>
                <rect id="桌-copy-22" stroke="#F39C9C" fill="#FFD6D6" x="0.5" y="52.5" width="11" height="23"></rect>
                <rect id="桌-copy-19" stroke="#00A699" fill-opacity="0.200000018" fill="#00A699" x="14.5" y="78.5" width="11" height="23"></rect>
                <rect id="桌-copy-23" stroke="#F39C9C" fill="#FFD6D6" x="0.5" y="78.5" width="11" height="23"></rect>
            </g>
            <g id="Group-Copy-8" transform="translate(315.000000, 266.000000) rotate(90.000000) translate(-315.000000, -266.000000) translate(309.000000, 200.000000)" fill="#FFD6D6" stroke="#F39C9C">
                <rect id="桌-copy-16" x="0.5" y="0.5" width="11" height="23"></rect>
                <rect id="桌-copy-17" x="0.5" y="26.5" width="11" height="23"></rect>
                <rect id="桌-copy-18" x="0.5" y="52.5" width="11" height="23"></rect>
                <rect id="桌-copy-19" x="0.5" y="82.5" width="11" height="23"></rect>
                <rect id="桌-copy-24" x="0.5" y="108.5" width="11" height="23"></rect>
            </g>
            <g id="Group-Copy-9" transform="translate(322.000000, 285.500000) rotate(90.000000) translate(-322.000000, -285.500000) translate(316.000000, 226.000000)">
                <rect id="桌-copy-16" stroke="#00A699" fill-opacity="0.200000018" fill="#00A699" x="0.5" y="0.5" width="11" height="23"></rect>
                <rect id="桌-copy-17" stroke="#00A699" fill-opacity="0.200000018" fill="#00A699" x="0.5" y="26.5" width="11" height="23"></rect>
                <rect id="桌-copy-18" stroke="#F39C9C" fill="#FFD6D6" x="0.5" y="95.5" width="11" height="23"></rect>
            </g>
            <g id="Group-Copy" transform="translate(459.000000, 166.000000)" fill="#FFD6D6" stroke="#F39C9C">
                <rect id="桌-copy-16" x="14.5" y="0.5" width="11" height="23"></rect>
                <rect id="桌-copy-20" x="0.5" y="0.5" width="11" height="23"></rect>
                <rect id="桌-copy-17" x="14.5" y="26.5" width="11" height="23"></rect>
                <rect id="桌-copy-21" x="0.5" y="26.5" width="11" height="23"></rect>
                <rect id="桌-copy-18" x="14.5" y="52.5" width="11" height="23"></rect>
                <rect id="桌-copy-22" x="0.5" y="52.5" width="11" height="23"></rect>
                <rect id="桌-copy-19" x="14.5" y="78.5" width="11" height="23"></rect>
                <rect id="桌-copy-23" x="0.5" y="78.5" width="11" height="23"></rect>
            </g>
            <g id="Group-Copy-2" transform="translate(507.500000, 184.000000) rotate(90.000000) translate(-507.500000, -184.000000) translate(447.500000, 101.500000)" fill="#FFD6D6" stroke="#F39C9C">
                <rect id="桌-copy-29" x="0.5" y="106.5" width="11" height="23"></rect>
                <g id="Group-6" transform="translate(94.000000, 0.000000)">
                    <rect id="桌-copy-16" x="14.5" y="0.5" width="11" height="23"></rect>
                    <rect id="桌-copy-20" x="0.5" y="0.5" width="11" height="23"></rect>
                    <rect id="桌-copy-17" x="14.5" y="26.5" width="11" height="23"></rect>
                    <rect id="桌-copy-21" x="0.5" y="26.5" width="11" height="23"></rect>
                    <rect id="桌-copy-18" x="14.5" y="52.5" width="11" height="23"></rect>
                    <rect id="桌-copy-22" x="0.5" y="52.5" width="11" height="23"></rect>
                </g>
                <g id="Group-5" transform="translate(28.000000, 135.000000) rotate(90.000000) translate(-28.000000, -135.000000) translate(-2.000000, 123.000000)">
                    <rect id="桌-copy-31" x="48.5" y="0.5" width="11" height="23"></rect>
                    <rect id="桌-copy-32" x="34.5" y="0.5" width="11" height="23"></rect>
                    <rect id="桌-copy-33" x="14.5" y="0.5" width="11" height="23"></rect>
                    <rect id="桌-copy-34" x="0.5" y="0.5" width="11" height="23"></rect>
                </g>
            </g>
            <g id="Group-Copy-10" transform="translate(341.000000, 332.000000) rotate(90.000000) translate(-341.000000, -332.000000) translate(328.000000, 294.000000)">
                <rect id="桌-copy-16" stroke="#00A699" fill-opacity="0.200000018" fill="#00A699" x="14.5" y="0.5" width="11" height="23"></rect>
                <rect id="桌-copy-20" stroke="#00A699" fill-opacity="0.200000018" fill="#00A699" x="0.5" y="0.5" width="11" height="23"></rect>
                <rect id="桌-copy-17" stroke="#F39C9C" fill="#FFD6D6" x="14.5" y="26.5" width="11" height="23"></rect>
                <rect id="桌-copy-21" stroke="#00A699" fill-opacity="0.200000018" fill="#00A699" x="0.5" y="26.5" width="11" height="23"></rect>
                <rect id="桌-copy-18" stroke="#00A699" fill-opacity="0.200000018" fill="#00A699" x="14.5" y="52.5" width="11" height="23"></rect>
                <rect id="桌-copy-22" stroke="#00A699" fill-opacity="0.200000018" fill="#00A699" x="0.5" y="52.5" width="11" height="23"></rect>
            </g>
            <g id="Group-Copy-6" transform="translate(550.000000, 305.000000) rotate(90.000000) translate(-550.000000, -305.000000) translate(525.000000, 292.000000)" fill="#FFD6D6" stroke="#F39C9C">
                <g id="Group-2" transform="translate(25.000000, 13.000000) rotate(90.000000) translate(-25.000000, -13.000000) translate(12.000000, -12.000000)">
                    <rect id="桌-copy-17" x="0.5" y="26.5" width="11" height="23"></rect>
                    <rect id="桌-copy-25" x="14.5" y="26.5" width="11" height="23"></rect>
                    <rect id="桌-copy-17" x="0.5" y="0.5" width="11" height="23"></rect>
                    <rect id="桌-copy-26" x="14.5" y="0.5" width="11" height="23"></rect>
                </g>
            </g>
            <g id="Group-Copy-12" transform="translate(552.000000, 305.000000) rotate(90.000000) translate(-552.000000, -305.000000) translate(539.000000, 293.000000)"></g>
            <g id="Group-Copy-7" transform="translate(294.500000, 244.500000) rotate(90.000000) translate(-294.500000, -244.500000) translate(117.000000, -24.000000)" fill="#00A699" fill-opacity="0.200000018" stroke="#00A699">
                <rect id="桌-copy-17" x="343.5" y="513.5" width="11" height="23"></rect>
                <rect id="桌-copy-27" x="0.5" y="0.5" width="11" height="23"></rect>
            </g>
            <g id="Group-Copy-11" transform="translate(268.500000, 244.500000) rotate(90.000000) translate(-268.500000, -244.500000) translate(91.000000, -24.000000)" fill="#FFD6D6" stroke="#F39C9C">
                <rect id="桌-copy-17" x="343.5" y="513.5" width="11" height="23"></rect>
                <rect id="桌-copy-28" x="0.5" y="0.5" width="11" height="23"></rect>
            </g>
            <g id="Group-Copy-3" transform="translate(552.000000, 178.000000) rotate(90.000000) translate(-552.000000, -178.000000) translate(539.000000, 140.000000)">
                <rect id="桌-copy-16" stroke="#00A699" fill-opacity="0.200000018" fill="#00A699" x="14.5" y="0.5" width="11" height="23"></rect>
                <rect id="桌-copy-20" stroke="#F39C9C" fill="#FFD6D6" x="0.5" y="0.5" width="11" height="23"></rect>
                <rect id="桌-copy-17" stroke="#F39C9C" fill="#FFD6D6" x="14.5" y="26.5" width="11" height="23"></rect>
                <rect id="桌-copy-21" stroke="#F39C9C" fill="#FFD6D6" x="0.5" y="26.5" width="11" height="23"></rect>
                <rect id="桌-copy-18" stroke="#F39C9C" fill="#FFD6D6" x="14.5" y="52.5" width="11" height="23"></rect>
                <rect id="桌-copy-22" stroke="#00A699" fill-opacity="0.200000018" fill="#00A699" x="0.5" y="52.5" width="11" height="23"></rect>
            </g>
            <g id="Group-Copy-4" transform="translate(552.000000, 123.000000) rotate(90.000000) translate(-552.000000, -123.000000) translate(539.000000, 85.000000)" fill="#FFD6D6" stroke="#F39C9C">
                <rect id="桌-copy-20" x="0.5" y="0.5" width="11" height="23"></rect>
                <rect id="桌-copy-30" x="14.5" y="0.5" width="11" height="23"></rect>
                <rect id="桌-copy-21" x="0.5" y="26.5" width="11" height="23"></rect>
                <rect id="桌-copy-35" x="14.5" y="26.5" width="11" height="23"></rect>
                <rect id="桌-copy-22" x="0.5" y="52.5" width="11" height="23"></rect>
                <rect id="桌-copy-36" x="14.5" y="52.5" width="11" height="23"></rect>
            </g>
            <g id="Group-3" transform="translate(305.000000, 94.000000)">
                <rect id="桌-copy-10" stroke="#00A699" fill-opacity="0.200000018" fill="#00A699" transform="translate(64.000000, 6.000000) rotate(90.000000) translate(-64.000000, -6.000000) " x="58.5" y="-5.5" width="11" height="23"></rect>
                <rect id="桌-copy-13" stroke="#F39C9C" fill="#FFD6D6" transform="translate(64.000000, 20.000000) rotate(90.000000) translate(-64.000000, -20.000000) " x="58.5" y="8.5" width="11" height="23"></rect>
                <rect id="桌-copy-11" stroke="#F39C9C" fill="#FFD6D6" transform="translate(38.000000, 6.000000) rotate(90.000000) translate(-38.000000, -6.000000) " x="32.5" y="-5.5" width="11" height="23"></rect>
                <rect id="桌-copy-14" stroke="#F39C9C" fill="#FFD6D6" transform="translate(38.000000, 20.000000) rotate(90.000000) translate(-38.000000, -20.000000) " x="32.5" y="8.5" width="11" height="23"></rect>
                <rect id="桌-copy-12" stroke="#F39C9C" fill="#FFD6D6" transform="translate(12.000000, 6.000000) rotate(90.000000) translate(-12.000000, -6.000000) " x="6.5" y="-5.5" width="11" height="23"></rect>
                <rect id="桌-copy-15" stroke="#F39C9C" fill="#FFD6D6" transform="translate(12.000000, 20.000000) rotate(90.000000) translate(-12.000000, -20.000000) " x="6.5" y="8.5" width="11" height="23"></rect>
            </g>
        </g>
        <g id="文字" transform="translate(162.000000, 207.000000)" fill="#929AA1" font-family="PingFang-SC-Regular, PingFang SC" font-size="10" font-weight="normal" letter-spacing="0.2222223">
            <text id="Booth">
                <tspan x="0" y="111">Booth</tspan>
            </text>
            <text id="Booth">
                <tspan x="67" y="259">Booth</tspan>
            </text>
            <text id="Booth">
                <tspan x="67" y="331">Booth</tspan>
            </text>
            <text id="Standing-Desk">
                <tspan x="180" y="324">Standing Desk</tspan>
            </text>
            <text id="Standing-Desk-Copy">
                <tspan x="694" y="11">Standing Desk</tspan>
            </text>
            <text id="Phone-Booth">
                <tspan x="55" y="111">Phone Booth</tspan>
            </text>
            <text id="Phone-Booth">
                <tspan x="301" y="240"> Phone Booth</tspan>
            </text>
        </g>
    </g>
</svg>