<?xml version="1.0" encoding="UTF-8"?>
<svg width="1024px" height="768px" viewBox="0 0 1024 768" version="1.1" xmlns="http://www.w3.org/2000/svg" xmlns:xlink="http://www.w3.org/1999/xlink">
    <!-- Generator: Sketch 51 (57462) - http://www.bohemiancoding.com/sketch -->
    <title>20180710南京路演示界面@3x</title>
    <desc>Created with Sketch.</desc>
    <defs></defs>
    <g id="20180710南京路演示界面" stroke="none" stroke-width="1" fill="none" fill-rule="evenodd">
        <rect id="白底" fill="#FFFFFF" x="0" y="0" width="1024" height="768"></rect>
        <g id="图名" transform="translate(64.000000, 32.000000)">
            <text id="6TH-FLOOR" font-family="BebasNeue, Bebas Neue" font-size="32" font-weight="normal" letter-spacing="0.7111112" fill="#35536C">
                <tspan x="0" y="29">6TH FLOOR</tspan>
            </text>
            <text id="West-Nanjing-Rd" font-family="PingFangSC-Regular, PingFang SC" font-size="14" font-weight="normal" letter-spacing="0.3111112" fill="#35536C">
                <tspan x="0" y="60">West Nanjing Rd</tspan>
            </text>
            <path d="M1,40 L160.028299,40" id="Path" stroke="#DEDEDE" stroke-width="2"></path>
        </g>
        <g id="图例" transform="translate(688.000000, 710.000000)">
            <text id="Legend" font-family="PingFang-SC-Regular, PingFang SC" font-size="18" font-weight="normal" letter-spacing="0.4000001" fill="#35536C">
                <tspan x="0" y="19">Legend</tspan>
            </text>
            <text id="Occupied" font-family="PingFang-SC-Light, PingFang SC" font-size="12" font-weight="300" letter-spacing="0.2666668" fill="#35536C">
                <tspan x="121" y="18">Occupied</tspan>
            </text>
            <text id="Vacant" font-family="PingFang-SC-Light, PingFang SC" font-size="12" font-weight="300" letter-spacing="0.2666668" fill="#35536C">
                <tspan x="232" y="18">Vacant</tspan>
            </text>
            <rect id="tuli1" stroke="#FF5A5F" fill-opacity="0.200000018" fill="#FF5A5F" x="89.5" y="1.5" width="23" height="23" rx="4"></rect>
            <rect id="tuli2" stroke="#00A699" fill-opacity="0.200000018" fill="#00A699" x="200.5" y="1.5" width="23" height="23" rx="4"></rect>
        </g>
        <g id="建筑" transform="translate(79.000000, 123.000000)">
            <g id="室" fill="#F2F2F2">
                <rect id="Rectangle" x="126" y="0" width="105" height="80"></rect>
                <rect id="Rectangle-Copy-17" x="62" y="203" width="68" height="36"></rect>
                <rect id="Rectangle-Copy-19" x="134" y="203" width="38" height="90"></rect>
                <rect id="Rectangle-Copy-20" x="176" y="203" width="56" height="90"></rect>
                <rect id="Rectangle-Copy-50" x="236" y="267" width="21" height="36"></rect>
                <rect id="Rectangle-Copy-51" x="236" y="233" width="21" height="30"></rect>
                <rect id="Rectangle-Copy-18" x="62" y="243" width="68" height="63"></rect>
                <rect id="Rectangle-Copy-21" x="62" y="310" width="56" height="61"></rect>
                <rect id="Rectangle-Copy-22" x="120" y="432" width="96" height="107"></rect>
                <path d="M289,432 L328,432 L328,417 L381,417 L381,489 L323,489 L323,539 L220,539 L220,432 L289,432 Z" id="Combined-Shape"></path>
                <rect id="Rectangle-Copy-10" x="0" y="168" width="40" height="80"></rect>
                <rect id="Rectangle-Copy-11" x="0" y="252" width="40" height="40"></rect>
                <rect id="Rectangle-Copy-12" x="0" y="302" width="40" height="43"></rect>
                <rect id="Rectangle-Copy-13" x="0" y="349" width="40" height="69"></rect>
                <path d="M45,421 L45,388 L68,388 L68,421 L68,503 L28,503 L28,476 L0,476 L0,421 L28,421 L45,421 Z" id="Combined-Shape"></path>
                <path d="M69,159 L69,185 L44,185 L44,159 L0,159 L0,113 L105,113 L105,159 L69,159 Z" id="Combined-Shape"></path>
                <rect id="Rectangle-Copy" x="235" y="0" width="105" height="61"></rect>
                <rect id="Rectangle-Copy-45" x="274" y="79" width="29" height="36"></rect>
                <rect id="Rectangle-Copy-46" x="275" y="129" width="45" height="56"></rect>
                <rect id="Rectangle-Copy-47" x="275" y="189" width="45" height="71"></rect>
                <rect id="Rectangle-Copy-48" x="275" y="264" width="45" height="36"></rect>
                <rect id="Rectangle-Copy-2" x="344" y="0" width="86" height="61"></rect>
                <path d="M385,539 L327,539 L327,496 L385,496 L385,396 L729,396 L729,539 L385,539 Z" id="Combined-Shape"></path>
                <rect id="Rectangle-Copy-3" x="434" y="0" width="66" height="61"></rect>
                <rect id="Rectangle-Copy-4" x="503" y="0" width="79" height="61"></rect>
                <rect id="Rectangle-Copy-5" x="586" y="0" width="45" height="61"></rect>
                <path d="M681,310 L774,310 L774,372 L681,372 L681,310 Z M782,345 L866,345 L866,475 L782,475 L782,345 Z" id="Combined-Shape"></path>
                <rect id="Rectangle-Copy-58" x="701" y="345" width="113" height="27"></rect>
                <rect id="Rectangle-Copy-31" x="520" y="180" width="137" height="37"></rect>
                <rect id="Rectangle-Copy-32" x="520" y="221" width="137" height="37"></rect>
                <rect id="Rectangle-Copy-35" x="520" y="303" width="48" height="69"></rect>
                <rect id="Rectangle-Copy-49" x="413" y="334" width="29" height="58"></rect>
                <rect id="Rectangle-Copy-36" x="476" y="329" width="40" height="43"></rect>
                <rect id="Rectangle-Copy-37" x="476" y="286" width="40" height="39"></rect>
                <rect id="Rectangle-Copy-38" x="476" y="232" width="40" height="50"></rect>
                <rect id="Rectangle-Copy-39" x="476" y="170" width="40" height="58"></rect>
                <rect id="Rectangle-Copy-40" x="476" y="126" width="40" height="40"></rect>
                <rect id="Rectangle-Copy-41" x="475" y="79" width="41" height="43"></rect>
                <rect id="Rectangle-Copy-42" x="402" y="79" width="69" height="87"></rect>
                <path d="M324,79 L393,79 L393,166 L324,166 L324,115 L307,115 L307,79 L324,79 Z" id="Combined-Shape"></path>
                <path d="M571,146 L657,146 L657,176 L520,176 L520,153 L520,80 L571,80 L571,146 Z" id="Combined-Shape"></path>
            </g>
            <g id="楼梯" transform="translate(71.000000, 113.000000)" fill="#F9F9F9">
                <path d="M184,46 L184,72 L149,72 L149,46 L38,46 L38,0 L184,0 L184,46 Z" id="Combined-Shape"></path>
                <rect id="Rectangle-Copy-59" x="314" y="221" width="24" height="58"></rect>
                <rect id="Rectangle-3" x="254" y="57" width="146" height="130"></rect>
                <rect id="Rectangle-3-Copy" x="662" y="283" width="45" height="84"></rect>
                <rect id="Rectangle-3-Copy-2" x="0" y="283" width="45" height="107"></rect>
            </g>
            <g id="固定" transform="translate(520.000000, 0.000000)" fill="#E2F7FB" opacity="0.5">
                <path d="M345,306 L345,341 L259,341 L259,306 L161,306 L161,98 L345,98 L345,306 Z"></path>
                <rect x="54" y="81" width="83" height="61"></rect>
                <rect x="0" y="262" width="54" height="37"></rect>
                <rect id="固定-copy" x="56" y="262" width="81" height="37"></rect>
                <rect x="52" y="303" width="85" height="69"></rect>
                <path d="M228,61 L228,94 L162,94 L162,61 L115,61 L115,0 L228,0 L228,61 Z"></path>
            </g>
        </g>
        <g id="电话/卡座" transform="translate(153.000000, 284.000000)">
            <rect id="Rectangle-4" stroke="#FA7676" fill="#F5CECE" x="0.5" y="0.5" width="9" height="20"></rect>
            <rect id="Rectangle-4-Copy-11" stroke="#FA7676" fill="#F5CECE" x="11.5" y="0.5" width="9" height="20"></rect>
            <rect id="Rectangle-4-Copy" stroke="#FA7676" fill="#F5CECE" x="28.5" y="0.5" width="9" height="20"></rect>
            <rect id="Rectangle-4-Copy-12" stroke="#00A699" fill-opacity="0.200000018" fill="#00A699" x="39.5" y="0.5" width="9" height="20"></rect>
            <rect id="Rectangle-4-Copy-2" stroke="#FA7676" fill="#F5CECE" x="55.5" y="4.5" width="13" height="13"></rect>
            <rect id="Rectangle-4-Copy-3" stroke="#00A699" fill-opacity="0.200000018" fill="#00A699" x="73.5" y="4.5" width="13" height="13"></rect>
            <rect id="Rectangle-4-Copy-4" stroke="#FA7676" fill="#F5CECE" x="91.5" y="4.5" width="13" height="13"></rect>
            <rect id="Rectangle-4-Copy-5" stroke="#00A699" fill-opacity="0.200000018" fill="#00A699" x="109.5" y="4.5" width="13" height="13"></rect>
            <rect id="Rectangle-4-Copy-6" stroke="#FA7676" fill="#F5CECE" x="127.5" y="4.5" width="13" height="13"></rect>
            <rect id="Rectangle-4-Copy-9" stroke="#00A699" fill-opacity="0.200000018" fill="#00A699" x="381.5" y="143.5" width="13" height="13"></rect>
            <rect id="Rectangle-4-Copy-10" stroke="#FA7676" fill="#F5CECE" x="381.5" y="161.5" width="13" height="13"></rect>
            <rect id="Rectangle-4-Copy-20" stroke="#FA7676" fill="#F5CECE" transform="translate(60.000000, 244.500000) rotate(90.000000) translate(-60.000000, -244.500000) " x="55.5" y="234.5" width="9" height="20"></rect>
            <rect id="Rectangle-4-Copy-15" stroke="#FA7676" fill="#F5CECE" transform="translate(60.000000, 255.500000) rotate(90.000000) translate(-60.000000, -255.500000) " x="55.5" y="245.5" width="9" height="20"></rect>
            <rect id="Rectangle-4-Copy-7" stroke="#00A699" fill-opacity="0.200000018" fill="#00A699" transform="translate(60.000000, 188.500000) rotate(90.000000) translate(-60.000000, -188.500000) " x="55.5" y="178.5" width="9" height="20"></rect>
            <rect id="Rectangle-4-Copy-14" stroke="#00A699" fill-opacity="0.200000018" fill="#00A699" transform="translate(60.000000, 199.500000) rotate(90.000000) translate(-60.000000, -199.500000) " x="55.5" y="189.5" width="9" height="20"></rect>
            <rect id="Rectangle-4-Copy-8" stroke="#FA7676" fill="#F5CECE" transform="translate(60.000000, 168.500000) rotate(90.000000) translate(-60.000000, -168.500000) " x="55.5" y="158.5" width="9" height="20"></rect>
            <rect id="Rectangle-4-Copy-13" stroke="#FA7676" fill="#F5CECE" transform="translate(60.000000, 157.500000) rotate(90.000000) translate(-60.000000, -157.500000) " x="55.5" y="147.5" width="9" height="20"></rect>
        </g>
        <g id="桌子" transform="translate(352.000000, 128.000000)">
            <rect id="desk" stroke="#F39C9C" fill="#FFD6D6" x="366.5" y="0.5" width="11" height="23"></rect>
            <rect id="desk5" stroke="#00A699" fill-opacity="0.200000018" fill="#00A699" transform="translate(378.000000, 43.000000) rotate(90.000000) translate(-378.000000, -43.000000) " x="372.5" y="31.5" width="11" height="23"></rect>
            <rect id="desk1" stroke="#F39C9C" fill="#FFD6D6" x="397.5" y="0.5" width="11" height="23"></rect>
            <rect id="desk-3" stroke="#F39C9C" fill="#FFD6D6" x="397.5" y="25.5" width="11" height="23"></rect>
            <rect id="desk-2" stroke="#F39C9C" fill="#FFD6D6" x="411.5" y="0.5" width="11" height="23"></rect>
            <rect id="desk-6" stroke="#F39C9C" fill="#FFD6D6" x="436.5" y="0.5" width="11" height="23"></rect>
            <rect id="desk-8" stroke="#F39C9C" fill="#FFD6D6" x="459.5" y="25.5" width="11" height="23"></rect>
            <rect id="desk9" stroke="#F39C9C" fill="#FFD6D6" transform="translate(459.000000, 73.000000) rotate(90.000000) translate(-459.000000, -73.000000) " x="453.5" y="61.5" width="11" height="23"></rect>
            <rect id="desk4" stroke="#F39C9C" fill="#FFD6D6" x="411.5" y="25.5" width="11" height="23"></rect>
            <rect id="desk7" stroke="#F39C9C" fill="#FFD6D6" x="436.5" y="25.5" width="11" height="23"></rect>
            <rect id="desk16" stroke="#F39C9C" fill="#FFD6D6" x="439.5" y="166.5" width="11" height="23"></rect>
            <rect id="desk20" stroke="#F39C9C" fill="#FFD6D6" x="425.5" y="166.5" width="11" height="23"></rect>
            <rect id="desk17" stroke="#00A699" fill-opacity="0.200000018" fill="#00A699" x="439.5" y="192.5" width="11" height="23"></rect>
            <rect id="desk21" stroke="#F39C9C" fill="#FFD6D6" x="425.5" y="192.5" width="11" height="23"></rect>
            <rect id="desk18" stroke="#00A699" fill-opacity="0.200000018" fill="#00A699" x="439.5" y="218.5" width="11" height="23"></rect>
            <rect id="desk22" stroke="#F39C9C" fill="#FFD6D6" x="425.5" y="218.5" width="11" height="23"></rect>
            <rect id="desk19" stroke="#00A699" fill-opacity="0.200000018" fill="#00A699" x="439.5" y="244.5" width="11" height="23"></rect>
            <rect id="desk23" stroke="#F39C9C" fill="#FFD6D6" x="425.5" y="244.5" width="11" height="23"></rect>
            <rect id="desk166" stroke="#F39C9C" fill="#FFD6D6" transform="translate(369.000000, 266.000000) rotate(90.000000) translate(-369.000000, -266.000000) " x="363.5" y="254.5" width="11" height="23"></rect>
            <rect id="desk177" stroke="#F39C9C" fill="#FFD6D6" transform="translate(343.000000, 266.000000) rotate(90.000000) translate(-343.000000, -266.000000) " x="337.5" y="254.5" width="11" height="23"></rect>
            <rect id="desk188" stroke="#F39C9C" fill="#FFD6D6" transform="translate(317.000000, 266.000000) rotate(90.000000) translate(-317.000000, -266.000000) " x="311.5" y="254.5" width="11" height="23"></rect>
            <rect id="desk199" stroke="#F39C9C" fill="#FFD6D6" transform="translate(287.000000, 266.000000) rotate(90.000000) translate(-287.000000, -266.000000) " x="281.5" y="254.5" width="11" height="23"></rect>
            <rect id="desk24" stroke="#F39C9C" fill="#FFD6D6" transform="translate(261.000000, 266.000000) rotate(90.000000) translate(-261.000000, -266.000000) " x="255.5" y="254.5" width="11" height="23"></rect>
            <rect id="desk26" stroke="#00A699" fill-opacity="0.200000018" fill="#00A699" transform="translate(369.500000, 285.500000) rotate(90.000000) translate(-369.500000, -285.500000) " x="364" y="274" width="11" height="23"></rect>
            <rect id="desk27" stroke="#00A699" fill-opacity="0.200000018" fill="#00A699" transform="translate(343.500000, 285.500000) rotate(90.000000) translate(-343.500000, -285.500000) " x="338" y="274" width="11" height="23"></rect>
            <rect id="desk28" stroke="#F39C9C" fill="#FFD6D6" transform="translate(274.500000, 285.500000) rotate(90.000000) translate(-274.500000, -285.500000) " x="269" y="274" width="11" height="23"></rect>
            <rect id="desk29" stroke="#F39C9C" fill="#FFD6D6" x="473.5" y="166.5" width="11" height="23"></rect>
            <rect id="desk30" stroke="#F39C9C" fill="#FFD6D6" x="459.5" y="166.5" width="11" height="23"></rect>
            <rect id="desk31" stroke="#F39C9C" fill="#FFD6D6" x="473.5" y="192.5" width="11" height="23"></rect>
            <rect id="desk32" stroke="#F39C9C" fill="#FFD6D6" x="459.5" y="192.5" width="11" height="23"></rect>
            <rect id="desk33" stroke="#F39C9C" fill="#FFD6D6" x="473.5" y="218.5" width="11" height="23"></rect>
            <rect id="desk34" stroke="#F39C9C" fill="#FFD6D6" x="459.5" y="218.5" width="11" height="23"></rect>
            <rect id="desk35" stroke="#F39C9C" fill="#FFD6D6" x="473.5" y="244.5" width="11" height="23"></rect>
            <rect id="desk36" stroke="#F39C9C" fill="#FFD6D6" x="459.5" y="244.5" width="11" height="23"></rect>
            <rect id="desk37" stroke="#F39C9C" fill="#FFD6D6" transform="translate(472.000000, 130.000000) rotate(90.000000) translate(-472.000000, -130.000000) " x="466.5" y="118.5" width="11" height="23"></rect>
            <rect id="desk38" stroke="#F39C9C" fill="#FFD6D6" transform="translate(578.000000, 238.000000) rotate(90.000000) translate(-578.000000, -238.000000) " x="572.5" y="226.5" width="11" height="23"></rect>
            <rect id="desk39" stroke="#F39C9C" fill="#FFD6D6" transform="translate(578.000000, 224.000000) rotate(90.000000) translate(-578.000000, -224.000000) " x="572.5" y="212.5" width="11" height="23"></rect>
            <rect id="desk40" stroke="#F39C9C" fill="#FFD6D6" transform="translate(552.000000, 238.000000) rotate(90.000000) translate(-552.000000, -238.000000) " x="546.5" y="226.5" width="11" height="23"></rect>
            <rect id="desk41" stroke="#F39C9C" fill="#FFD6D6" transform="translate(552.000000, 224.000000) rotate(90.000000) translate(-552.000000, -224.000000) " x="546.5" y="212.5" width="11" height="23"></rect>
            <rect id="desk42" stroke="#F39C9C" fill="#FFD6D6" transform="translate(526.000000, 238.000000) rotate(90.000000) translate(-526.000000, -238.000000) " x="520.5" y="226.5" width="11" height="23"></rect>
            <rect id="desk43" stroke="#F39C9C" fill="#FFD6D6" transform="translate(526.000000, 224.000000) rotate(90.000000) translate(-526.000000, -224.000000) " x="520.5" y="212.5" width="11" height="23"></rect>
            <rect id="desk44" stroke="#F39C9C" fill="#FFD6D6" transform="translate(431.062618, 152.000000) rotate(180.000000) translate(-431.062618, -152.000000) " x="425.562618" y="140.5" width="11" height="23"></rect>
            <rect id="desk45" stroke="#F39C9C" fill="#FFD6D6" transform="translate(445.062618, 152.000000) rotate(180.000000) translate(-445.062618, -152.000000) " x="439.562618" y="140.5" width="11" height="23"></rect>
            <rect id="desk46" stroke="#F39C9C" fill="#FFD6D6" transform="translate(465.062618, 152.000000) rotate(180.000000) translate(-465.062618, -152.000000) " x="459.562618" y="140.5" width="11" height="23"></rect>
            <rect id="desk47" stroke="#F39C9C" fill="#FFD6D6" transform="translate(479.062618, 152.000000) rotate(180.000000) translate(-479.062618, -152.000000) " x="473.562618" y="140.5" width="11" height="23"></rect>
            <rect id="desk48" stroke="#00A699" fill-opacity="0.200000018" fill="#00A699" transform="translate(367.000000, 339.000000) rotate(90.000000) translate(-367.000000, -339.000000) " x="361.5" y="327.5" width="11" height="23"></rect>
            <rect id="desk49" stroke="#00A699" fill-opacity="0.200000018" fill="#00A699" transform="translate(367.000000, 325.000000) rotate(90.000000) translate(-367.000000, -325.000000) " x="361.5" y="313.5" width="11" height="23"></rect>
            <rect id="desk50" stroke="#F39C9C" fill="#FFD6D6" transform="translate(341.000000, 339.000000) rotate(90.000000) translate(-341.000000, -339.000000) " x="335.5" y="327.5" width="11" height="23"></rect>
            <rect id="desk51" stroke="#00A699" fill-opacity="0.200000018" fill="#00A699" transform="translate(341.000000, 325.000000) rotate(90.000000) translate(-341.000000, -325.000000) " x="335.5" y="313.5" width="11" height="23"></rect>
            <rect id="desk52" stroke="#00A699" fill-opacity="0.200000018" fill="#00A699" transform="translate(315.000000, 339.000000) rotate(90.000000) translate(-315.000000, -339.000000) " x="309.5" y="327.5" width="11" height="23"></rect>
            <rect id="desk53" stroke="#00A699" fill-opacity="0.200000018" fill="#00A699" transform="translate(315.000000, 325.000000) rotate(90.000000) translate(-315.000000, -325.000000) " x="309.5" y="313.5" width="11" height="23"></rect>
            <rect id="desk54" stroke="#F39C9C" fill="#FFD6D6" x="539.5" y="295.5" width="11" height="23"></rect>
            <rect id="desk55" stroke="#F39C9C" fill="#FFD6D6" x="553.5" y="295.5" width="11" height="23"></rect>
            <rect id="desk56" stroke="#F39C9C" fill="#FFD6D6" x="539.5" y="269.5" width="11" height="23"></rect>
            <rect id="desk57" stroke="#F39C9C" fill="#FFD6D6" x="553.5" y="269.5" width="11" height="23"></rect>
            <rect id="desk58" stroke="#00A699" fill-opacity="0.200000018" fill="#00A699" transform="translate(38.000000, 416.000000) rotate(90.000000) translate(-38.000000, -416.000000) " x="32.5" y="404.5" width="11" height="23"></rect>
            <rect id="desk60" stroke="#F39C9C" fill="#FFD6D6" transform="translate(12.000000, 416.000000) rotate(90.000000) translate(-12.000000, -416.000000) " x="6.5" y="404.5" width="11" height="23"></rect>
            <rect id="desk62" stroke="#00A699" fill-opacity="0.200000018" fill="#00A699" transform="translate(578.000000, 185.000000) rotate(90.000000) translate(-578.000000, -185.000000) " x="572.5" y="173.5" width="11" height="23"></rect>
            <rect id="desk63" stroke="#F39C9C" fill="#FFD6D6" transform="translate(578.000000, 171.000000) rotate(90.000000) translate(-578.000000, -171.000000) " x="572.5" y="159.5" width="11" height="23"></rect>
            <rect id="desk64" stroke="#F39C9C" fill="#FFD6D6" transform="translate(552.000000, 185.000000) rotate(90.000000) translate(-552.000000, -185.000000) " x="546.5" y="173.5" width="11" height="23"></rect>
            <rect id="desk65" stroke="#F39C9C" fill="#FFD6D6" transform="translate(552.000000, 171.000000) rotate(90.000000) translate(-552.000000, -171.000000) " x="546.5" y="159.5" width="11" height="23"></rect>
            <rect id="desk66" stroke="#F39C9C" fill="#FFD6D6" transform="translate(526.000000, 185.000000) rotate(90.000000) translate(-526.000000, -185.000000) " x="520.5" y="173.5" width="11" height="23"></rect>
            <rect id="desk67" stroke="#00A699" fill-opacity="0.200000018" fill="#00A699" transform="translate(526.000000, 171.000000) rotate(90.000000) translate(-526.000000, -171.000000) " x="520.5" y="159.5" width="11" height="23"></rect>
            <rect id="desk68" stroke="#F39C9C" fill="#FFD6D6" transform="translate(578.000000, 116.000000) rotate(90.000000) translate(-578.000000, -116.000000) " x="572.5" y="104.5" width="11" height="23"></rect>
            <rect id="desk69" stroke="#F39C9C" fill="#FFD6D6" transform="translate(578.000000, 130.000000) rotate(90.000000) translate(-578.000000, -130.000000) " x="572.5" y="118.5" width="11" height="23"></rect>
            <rect id="desk70" stroke="#F39C9C" fill="#FFD6D6" transform="translate(552.000000, 116.000000) rotate(90.000000) translate(-552.000000, -116.000000) " x="546.5" y="104.5" width="11" height="23"></rect>
            <rect id="desk71" stroke="#F39C9C" fill="#FFD6D6" transform="translate(552.000000, 130.000000) rotate(90.000000) translate(-552.000000, -130.000000) " x="546.5" y="118.5" width="11" height="23"></rect>
            <rect id="desk79" stroke="#F39C9C" fill="#FFD6D6" transform="translate(526.000000, 116.000000) rotate(90.000000) translate(-526.000000, -116.000000) " x="520.5" y="104.5" width="11" height="23"></rect>
            <rect id="desk72" stroke="#F39C9C" fill="#FFD6D6" transform="translate(526.000000, 130.000000) rotate(90.000000) translate(-526.000000, -130.000000) " x="520.5" y="118.5" width="11" height="23"></rect>
            <rect id="desk73" stroke="#00A699" fill-opacity="0.200000018" fill="#00A699" transform="translate(369.000000, 100.000000) rotate(90.000000) translate(-369.000000, -100.000000) " x="363.5" y="88.5" width="11" height="23"></rect>
            <rect id="desk74" stroke="#F39C9C" fill="#FFD6D6" transform="translate(369.000000, 114.000000) rotate(90.000000) translate(-369.000000, -114.000000) " x="363.5" y="102.5" width="11" height="23"></rect>
            <rect id="desk75" stroke="#F39C9C" fill="#FFD6D6" transform="translate(343.000000, 100.000000) rotate(90.000000) translate(-343.000000, -100.000000) " x="337.5" y="88.5" width="11" height="23"></rect>
            <rect id="desk76" stroke="#F39C9C" fill="#FFD6D6" transform="translate(343.000000, 114.000000) rotate(90.000000) translate(-343.000000, -114.000000) " x="337.5" y="102.5" width="11" height="23"></rect>
            <rect id="desk77" stroke="#F39C9C" fill="#FFD6D6" transform="translate(317.000000, 100.000000) rotate(90.000000) translate(-317.000000, -100.000000) " x="311.5" y="88.5" width="11" height="23"></rect>
            <rect id="desk78" stroke="#F39C9C" fill="#FFD6D6" transform="translate(317.000000, 114.000000) rotate(90.000000) translate(-317.000000, -114.000000) " x="311.5" y="102.5" width="11" height="23"></rect>
        </g>
        <g id="文字" transform="translate(162.000000, 307.000000)" fill="#929AA1" font-family="PingFang-SC-Regular, PingFang SC" font-size="10" font-weight="normal" letter-spacing="0.2222223">
            <text id="Booth">
                <tspan x="0" y="11">Booth</tspan>
            </text>
            <text id="Booth">
                <tspan x="67" y="159">Booth</tspan>
            </text>
            <text id="Booth">
                <tspan x="67" y="231">Booth</tspan>
            </text>
            <text id="Standing-Desk">
                <tspan x="180" y="224">Standing Desk</tspan>
            </text>
            <text id="Standing-Desk-Copy">
                <tspan x="472" y="70">Standing Desk</tspan>
            </text>
            <text id="Phone-Booth">
                <tspan x="55" y="11">Phone Booth</tspan>
            </text>
            <text id="Phone-Booth">
                <tspan x="301" y="140"> Phone Booth</tspan>
            </text>
        </g>
        <g id="编号" transform="translate(156.000000, 131.000000)" fill="#35536C" font-family="BebasNeue, Bebas Neue" font-size="6" font-weight="normal" letter-spacing="0.1333334">
            <g transform="translate(0.000000, 120.000000)" id="A2-1050">
                <text>
                    <tspan x="0" y="6">A2 1140</tspan>
                </text>
            </g>
            <g transform="translate(27.000000, 120.000000)" id="A2-1050">
                <text>
                    <tspan x="0" y="6">A2 1054</tspan>
                </text>
            </g>
            <g transform="translate(28.000000, 308.000000)" id="A2-1050">
                <text>
                    <tspan x="0" y="6">A2 1063</tspan>
                </text>
            </g>
            <g transform="translate(396.000000, 295.000000)" id="A2-1050">
                <text>
                    <tspan x="0" y="6">A2 1069</tspan>
                </text>
            </g>
            <g transform="translate(449.000000, 249.000000)" id="A2-1050">
                <text>
                    <tspan x="0" y="6">A2 1126</tspan>
                </text>
            </g>
            <g transform="translate(462.000000, 289.000000)" id="A2-1050">
                <text>
                    <tspan x="0" y="6">A2 1131</tspan>
                </text>
            </g>
            <g transform="translate(532.000000, 289.000000)" id="A2-1050">
                <text>
                    <tspan x="0" y="6">A2 1132</tspan>
                </text>
            </g>
            <g transform="translate(503.000000, 307.000000)" id="A2-1050">
                <text>
                    <tspan x="0" y="6">A2 1134</tspan>
                </text>
            </g>
            <g transform="translate(503.000000, 344.000000)" id="A2-1050">
                <text>
                    <tspan x="0" y="6">A2 1137</tspan>
                </text>
            </g>
            <g transform="translate(529.000000, 307.000000)" id="A2-1050">
                <text>
                    <tspan x="0" y="6">A2 1135</tspan>
                </text>
            </g>
            <g transform="translate(529.000000, 344.000000)" id="A2-1050">
                <text>
                    <tspan x="0" y="6">A2 1138</tspan>
                </text>
            </g>
            <g transform="translate(555.000000, 307.000000)" id="A2-1050">
                <text>
                    <tspan x="0" y="6">A2 1136</tspan>
                </text>
            </g>
            <g transform="translate(555.000000, 344.000000)" id="A2-1050">
                <text>
                    <tspan x="0" y="6">A2 1139</tspan>
                </text>
            </g>
            <g transform="translate(741.000000, 305.000000) rotate(90.000000) translate(-741.000000, -305.000000) translate(732.000000, 301.000000)" id="A2-1050">
                <text>
                    <tspan x="0" y="6">A2 1106</tspan>
                </text>
            </g>
            <g transform="translate(741.000000, 280.000000) rotate(90.000000) translate(-741.000000, -280.000000) translate(732.000000, 276.000000)" id="A2-1050">
                <text>
                    <tspan x="0" y="6">A2 1104</tspan>
                </text>
            </g>
            <g transform="translate(675.000000, 254.000000) rotate(90.000000) translate(-675.000000, -254.000000) translate(666.000000, 250.000000)" id="A2-1050">
                <text>
                    <tspan x="0" y="6">A2 1113</tspan>
                </text>
            </g>
            <g transform="translate(641.000000, 254.000000) rotate(90.000000) translate(-641.000000, -254.000000) translate(632.000000, 250.000000)" id="A2-1050">
                <text>
                    <tspan x="0" y="6">A2 1121</tspan>
                </text>
            </g>
            <g transform="translate(661.000000, 254.000000) rotate(90.000000) translate(-661.000000, -254.000000) translate(652.000000, 250.000000)" id="A2-1050">
                <text>
                    <tspan x="0" y="6">A2 1117</tspan>
                </text>
            </g>
            <g transform="translate(626.000000, 254.000000) rotate(90.000000) translate(-626.000000, -254.000000) translate(617.000000, 250.000000)" id="A2-1050">
                <text>
                    <tspan x="0" y="6">A2 1125</tspan>
                </text>
            </g>
            <g transform="translate(675.000000, 228.000000) rotate(90.000000) translate(-675.000000, -228.000000) translate(666.000000, 224.000000)" id="A2-1050">
                <text>
                    <tspan x="0" y="6">A2 1112</tspan>
                </text>
            </g>
            <g transform="translate(641.000000, 228.000000) rotate(90.000000) translate(-641.000000, -228.000000) translate(632.000000, 224.000000)" id="A2-1050">
                <text>
                    <tspan x="0" y="6">A2 1120</tspan>
                </text>
            </g>
            <g transform="translate(661.000000, 228.000000) rotate(90.000000) translate(-661.000000, -228.000000) translate(652.000000, 224.000000)" id="A2-1050">
                <text>
                    <tspan x="0" y="6">A2 1116</tspan>
                </text>
            </g>
            <g transform="translate(626.000000, 228.000000) rotate(90.000000) translate(-626.000000, -228.000000) translate(617.000000, 224.000000)" id="A2-1050">
                <text>
                    <tspan x="0" y="6">A2 1124</tspan>
                </text>
            </g>
            <g transform="translate(675.000000, 202.000000) rotate(90.000000) translate(-675.000000, -202.000000) translate(666.000000, 198.000000)" id="A2-1050">
                <text>
                    <tspan x="0" y="6">A2 1111</tspan>
                </text>
            </g>
            <g transform="translate(613.000000, 35.000000) rotate(90.000000) translate(-613.000000, -35.000000) translate(604.000000, 31.000000)" id="A2-1050">
                <text>
                    <tspan x="0" y="6">A2 1078</tspan>
                </text>
            </g>
            <g transform="translate(638.000000, 35.000000) rotate(90.000000) translate(-638.000000, -35.000000) translate(629.000000, 31.000000)" id="A2-1050">
                <text>
                    <tspan x="0" y="6">A2 1080</tspan>
                </text>
            </g>
            <g transform="translate(661.000000, 35.000000) rotate(90.000000) translate(-661.000000, -35.000000) translate(652.000000, 31.000000)" id="A2-1050">
                <text>
                    <tspan x="0" y="6">A2 1081</tspan>
                </text>
            </g>
            <g transform="translate(565.000000, 36.000000)" id="A2-1050">
                <text>
                    <tspan x="0" y="6">A2 1074</tspan>
                </text>
            </g>
            <g transform="translate(568.000000, 9.000000) rotate(90.000000) translate(-568.000000, -9.000000) translate(559.000000, 5.000000)" id="A2-1050">
                <text>
                    <tspan x="0" y="6">A2 1073</tspan>
                </text>
            </g>
            <g transform="translate(641.000000, 202.000000) rotate(90.000000) translate(-641.000000, -202.000000) translate(632.000000, 198.000000)" id="A2-1050">
                <text>
                    <tspan x="0" y="6">A2 1119</tspan>
                </text>
            </g>
            <g transform="translate(661.000000, 202.000000) rotate(90.000000) translate(-661.000000, -202.000000) translate(652.000000, 198.000000)" id="A2-1050">
                <text>
                    <tspan x="0" y="6">A2 1115</tspan>
                </text>
            </g>
            <g transform="translate(599.000000, 35.000000) rotate(90.000000) translate(-599.000000, -35.000000) translate(590.000000, 31.000000)" id="A2-1050">
                <text>
                    <tspan x="0" y="6">A2 1076</tspan>
                </text>
            </g>
            <g transform="translate(626.000000, 202.000000) rotate(90.000000) translate(-626.000000, -202.000000) translate(617.000000, 198.000000)" id="A2-1050">
                <text>
                    <tspan x="0" y="6">A2 1123</tspan>
                </text>
            </g>
            <g transform="translate(675.000000, 176.000000) rotate(90.000000) translate(-675.000000, -176.000000) translate(666.000000, 172.000000)" id="A2-1050">
                <text>
                    <tspan x="0" y="6">A2 1110</tspan>
                </text>
            </g>
            <g transform="translate(613.000000, 9.000000) rotate(90.000000) translate(-613.000000, -9.000000) translate(604.000000, 5.000000)" id="A2-1050">
                <text>
                    <tspan x="0" y="6">A2 1077</tspan>
                </text>
            </g>
            <g transform="translate(638.000000, 9.000000) rotate(90.000000) translate(-638.000000, -9.000000) translate(629.000000, 5.000000)" id="A2-1050">
                <text>
                    <tspan x="0" y="6">A2 1079</tspan>
                </text>
            </g>
            <g transform="translate(641.000000, 176.000000) rotate(90.000000) translate(-641.000000, -176.000000) translate(632.000000, 172.000000)" id="A2-1050">
                <text>
                    <tspan x="0" y="6">A2 1118</tspan>
                </text>
            </g>
            <g transform="translate(661.000000, 176.000000) rotate(90.000000) translate(-661.000000, -176.000000) translate(652.000000, 172.000000)" id="A2-1050">
                <text>
                    <tspan x="0" y="6">A2 1114</tspan>
                </text>
            </g>
            <g transform="translate(599.000000, 9.000000) rotate(90.000000) translate(-599.000000, -9.000000) translate(590.000000, 5.000000)" id="A2-1050">
                <text>
                    <tspan x="0" y="6">A2 1075</tspan>
                </text>
            </g>
            <g transform="translate(626.000000, 176.000000) rotate(90.000000) translate(-626.000000, -176.000000) translate(617.000000, 172.000000)" id="A2-1050">
                <text>
                    <tspan x="0" y="6">A2 1122</tspan>
                </text>
            </g>
            <g transform="translate(755.000000, 305.000000) rotate(90.000000) translate(-755.000000, -305.000000) translate(746.000000, 301.000000)" id="A2-1050">
                <text>
                    <tspan x="0" y="6">A2 1107</tspan>
                </text>
            </g>
            <g transform="translate(755.000000, 280.000000) rotate(90.000000) translate(-755.000000, -280.000000) translate(746.000000, 276.000000)" id="A2-1050">
                <text>
                    <tspan x="0" y="6">A2 1105</tspan>
                </text>
            </g>
            <g transform="translate(661.000000, 150.000000) rotate(90.000000) translate(-661.000000, -150.000000) translate(652.000000, 146.000000)" id="A2-1050">
                <text>
                    <tspan x="0" y="6">A2 1109</tspan>
                </text>
            </g>
            <g transform="translate(675.000000, 150.000000) rotate(90.000000) translate(-675.000000, -150.000000) translate(666.000000, 146.000000)" id="A2-1050">
                <text>
                    <tspan x="0" y="6">A2 1108</tspan>
                </text>
            </g>
            <g transform="translate(764.000000, 241.000000)" id="A2-1050">
                <text>
                    <tspan x="0" y="6">A2 1103</tspan>
                </text>
            </g>
            <g transform="translate(766.000000, 188.000000)" id="A2-1050">
                <text>
                    <tspan x="0" y="6">A2 1097</tspan>
                </text>
            </g>
            <g transform="translate(557.000000, 117.000000)" id="A2-1050">
                <text>
                    <tspan x="0" y="6">A2 1088</tspan>
                </text>
            </g>
            <g transform="translate(764.000000, 207.000000)" id="A2-1050">
                <text>
                    <tspan x="0" y="6">A2 1100</tspan>
                </text>
            </g>
            <g transform="translate(766.000000, 154.000000)" id="A2-1050">
                <text>
                    <tspan x="0" y="6">A2 1094</tspan>
                </text>
            </g>
            <g transform="translate(557.000000, 83.000000)" id="A2-1050">
                <text>
                    <tspan x="0" y="6">A2 1085</tspan>
                </text>
            </g>
            <g transform="translate(641.000000, 151.000000) rotate(90.000000) translate(-641.000000, -151.000000) translate(632.000000, 147.000000)" id="A2-1050">
                <text>
                    <tspan x="0" y="6">A2 1091</tspan>
                </text>
            </g>
            <g transform="translate(645.000000, 56.000000)" id="A2-1050">
                <text>
                    <tspan x="0" y="6">A2 1082</tspan>
                </text>
            </g>
            <g transform="translate(738.000000, 241.000000)" id="A2-1050">
                <text>
                    <tspan x="0" y="6">A2 1102</tspan>
                </text>
            </g>
            <g transform="translate(740.000000, 188.000000)" id="A2-1050">
                <text>
                    <tspan x="0" y="6">A2 1096</tspan>
                </text>
            </g>
            <g transform="translate(531.000000, 117.000000)" id="A2-1050">
                <text>
                    <tspan x="0" y="6">A2 1087</tspan>
                </text>
            </g>
            <g transform="translate(738.000000, 207.000000)" id="A2-1050">
                <text>
                    <tspan x="0" y="6">A2 1099</tspan>
                </text>
            </g>
            <g transform="translate(740.000000, 154.000000)" id="A2-1050">
                <text>
                    <tspan x="0" y="6">A2 1093</tspan>
                </text>
            </g>
            <g transform="translate(531.000000, 83.000000)" id="A2-1050">
                <text>
                    <tspan x="0" y="6">A2 1084</tspan>
                </text>
            </g>
            <g transform="translate(626.000000, 151.000000) rotate(90.000000) translate(-626.000000, -151.000000) translate(617.000000, 147.000000)" id="A2-1050">
                <text>
                    <tspan x="0" y="6">A2 1090</tspan>
                </text>
            </g>
            <g transform="translate(70.000000, 316.000000)" id="A2-1050">
                <text>
                    <tspan x="0" y="6">A2 1144</tspan>
                </text>
            </g>
            <g transform="translate(713.000000, 99.000000)" id="A2-1050">
                <text>
                    <tspan x="0" y="6">A2 1145</tspan>
                </text>
            </g>
            <g transform="translate(713.000000, 135.000000)" id="A2-1050">
                <text>
                    <tspan x="0" y="6">A2 1146</tspan>
                </text>
            </g>
            <g transform="translate(740.000000, 99.000000)" id="A2-1050">
                <text>
                    <tspan x="0" y="6">A2 1147</tspan>
                </text>
            </g>
            <g transform="translate(740.000000, 135.000000)" id="A2-1050">
                <text>
                    <tspan x="0" y="6">A2 1148</tspan>
                </text>
            </g>
            <g transform="translate(765.000000, 99.000000)" id="A2-1050">
                <text>
                    <tspan x="0" y="6">A2 1149</tspan>
                </text>
            </g>
            <g transform="translate(765.000000, 135.000000)" id="A2-1050">
                <text>
                    <tspan x="0" y="6">A2 1150</tspan>
                </text>
            </g>
            <g transform="translate(714.000000, 241.000000)" id="A2-1050">
                <text>
                    <tspan x="0" y="6">A2 1101</tspan>
                </text>
            </g>
            <g transform="translate(714.000000, 188.000000)" id="A2-1050">
                <text>
                    <tspan x="0" y="6">A2 1095</tspan>
                </text>
            </g>
            <g transform="translate(505.000000, 117.000000)" id="A2-1050">
                <text>
                    <tspan x="0" y="6">A2 1086</tspan>
                </text>
            </g>
            <g transform="translate(714.000000, 207.000000)" id="A2-1050">
                <text>
                    <tspan x="0" y="6">A2 1098</tspan>
                </text>
            </g>
            <g transform="translate(714.000000, 154.000000)" id="A2-1050">
                <text>
                    <tspan x="0" y="6">A2 1092</tspan>
                </text>
            </g>
            <g transform="translate(505.000000, 83.000000)" id="A2-1050">
                <text>
                    <tspan x="0" y="6">A2 1083</tspan>
                </text>
            </g>
            <g transform="translate(660.000000, 113.000000)" id="A2-1050">
                <text>
                    <tspan x="0" y="6">A2 1089</tspan>
                </text>
            </g>
            <g transform="translate(70.000000, 308.000000)" id="A2-1050">
                <text>
                    <tspan x="0" y="6">A2 1143</tspan>
                </text>
            </g>
            <g transform="translate(559.000000, 289.000000)" id="A2-1050">
                <text>
                    <tspan x="0" y="6">A2 1133</tspan>
                </text>
            </g>
            <g transform="translate(474.000000, 249.000000)" id="A2-1050">
                <text>
                    <tspan x="0" y="6">A2 1127</tspan>
                </text>
            </g>
            <g transform="translate(504.000000, 249.000000)" id="A2-1050">
                <text>
                    <tspan x="0" y="6">A2 1128</tspan>
                </text>
            </g>
            <g transform="translate(532.000000, 249.000000)" id="A2-1050">
                <text>
                    <tspan x="0" y="6">A2 1129</tspan>
                </text>
            </g>
            <g transform="translate(558.000000, 249.000000)" id="A2-1050">
                <text>
                    <tspan x="0" y="6">A2 1130</tspan>
                </text>
            </g>
            <g transform="translate(396.000000, 313.000000)" id="A2-1050">
                <text>
                    <tspan x="0" y="6">A2 1071</tspan>
                </text>
            </g>
            <g transform="translate(199.000000, 420.000000)" id="A2-1050">
                <text>
                    <tspan x="0" y="6">A2 1141</tspan>
                </text>
            </g>
            <g transform="translate(226.000000, 420.000000)" id="A2-1050">
                <text>
                    <tspan x="0" y="6">A2 1142</tspan>
                </text>
            </g>
            <g transform="translate(28.000000, 338.000000)" id="A2-1050">
                <text>
                    <tspan x="0" y="6">A2 1065</tspan>
                </text>
            </g>
            <g transform="translate(28.000000, 395.000000)" id="A2-1050">
                <text>
                    <tspan x="0" y="6">A2 1067</tspan>
                </text>
            </g>
            <g transform="translate(51.000000, 148.000000)" id="A2-1050">
                <text>
                    <tspan x="0" y="6">A2 1058</tspan>
                </text>
            </g>
            <g transform="translate(87.000000, 148.000000)" id="A2-1050">
                <text>
                    <tspan x="0" y="6">A2 1060</tspan>
                </text>
            </g>
            <g transform="translate(124.000000, 148.000000)" id="A2-1050">
                <text>
                    <tspan x="0" y="6">A2 1062</tspan>
                </text>
            </g>
            <g transform="translate(69.000000, 172.000000)" id="A2-1050">
                <text>
                    <tspan x="0" y="6">A2 1059</tspan>
                </text>
            </g>
            <g transform="translate(106.000000, 172.000000)" id="A2-1050">
                <text>
                    <tspan x="0" y="6">A2 1061</tspan>
                </text>
            </g>
            <g transform="translate(0.000000, 128.000000)" id="A2-1050">
                <text>
                    <tspan x="0" y="6">A2 1051</tspan>
                </text>
            </g>
            <g transform="translate(27.000000, 128.000000)" id="A2-1050">
                <text>
                    <tspan x="0" y="6">A2 1055</tspan>
                </text>
            </g>
            <g transform="translate(28.000000, 316.000000)" id="A2-1050">
                <text>
                    <tspan x="0" y="6">A2 1064</tspan>
                </text>
            </g>
            <g transform="translate(396.000000, 303.000000)" id="A2-1050">
                <text>
                    <tspan x="0" y="6">A2 1070</tspan>
                </text>
            </g>
            <g transform="translate(396.000000, 321.000000)" id="A2-1050">
                <text>
                    <tspan x="0" y="6">A2 1072</tspan>
                </text>
            </g>
            <g transform="translate(28.000000, 346.000000)" id="A2-1050">
                <text>
                    <tspan x="0" y="6">A2 1066</tspan>
                </text>
            </g>
            <g transform="translate(28.000000, 403.000000)" id="A2-1050">
                <text>
                    <tspan x="0" y="6">A2 1068</tspan>
                </text>
            </g>
            <g transform="translate(0.000000, 136.000000)" id="A2-1050">
                <text>
                    <tspan x="0" y="6">A2 1052</tspan>
                </text>
            </g>
            <g transform="translate(27.000000, 136.000000)" id="A2-1050">
                <text>
                    <tspan x="0" y="6">A2 1056</tspan>
                </text>
            </g>
            <g transform="translate(0.000000, 144.000000)" id="A2-1050">
                <text>
                    <tspan x="0" y="6">A2 1053</tspan>
                </text>
            </g>
            <g transform="translate(27.000000, 144.000000)" id="A2-1050">
                <text>
                    <tspan x="0" y="6">A2 1057</tspan>
                </text>
            </g>
        </g>
        <g id="cgq取消分组" transform="translate(156.000000, 288.000000)" fill="#3822E6">
            <rect id="9am-cgq-1" x="0" y="0" width="4" height="4"></rect>
            <rect id="9am-cgq-1" x="11" y="0" width="4" height="4"></rect>
            <rect id="9am-cgq-1" x="39" y="0" width="4" height="4"></rect>
            <rect id="9am-cgq-1" x="28" y="0" width="4" height="4"></rect>
            <rect id="9am-cgq-1" x="383" y="141" width="4" height="4"></rect>
            <rect id="9am-cgq-1" x="383" y="159" width="4" height="4"></rect>
            <rect id="9am-cgq-1" x="0" y="9" width="4" height="4"></rect>
            <rect id="9am-cgq-1" x="11" y="9" width="4" height="4"></rect>
            <rect id="9am-cgq-1" x="39" y="9" width="4" height="4"></rect>
            <rect id="9am-cgq-1-copy" x="50" y="152" width="4" height="4"></rect>
            <rect id="9am-cgq-1-copy-3" x="50" y="163" width="4" height="4"></rect>
            <rect id="9am-cgq-1-copy-2" x="60" y="152" width="4" height="4"></rect>
            <rect id="9am-cgq-1-copy-4" x="60" y="163" width="4" height="4"></rect>
            <rect id="9am-cgq-1" x="28" y="9" width="4" height="4"></rect>
            <rect id="9am-cgq-1" x="383" y="147" width="4" height="4"></rect>
            <rect id="9am-cgq-1" x="383" y="165" width="4" height="4"></rect>
        </g>
    </g>
</svg>