<svg xmlns="http://www.w3.org/2000/svg" viewBox="0 0 120 90"><defs><style>.cls-1{fill:#bde4e1;}</style></defs><title>logo</title><g id="图层_2" data-name="图层 2"><g id="图层_1-2" data-name="图层 1"><path class="cls-1" d="M33.39,27.3A18,18,0,1,0,18,36l.9,0L4.67,57.83a3.69,3.69,0,0,0,1.08,5.11,3.63,3.63,0,0,0,2,.6,3.7,3.7,0,0,0,3.11-1.68L32.2,29A16,16,0,0,0,33.39,27.3ZM18,28.6A10.6,10.6,0,1,1,27.33,23a2.8,2.8,0,0,0-.24.33L26.2,24.7A10.54,10.54,0,0,1,18,28.6Z"/><path class="cls-1" d="M104.38,53.4A3.22,3.22,0,0,0,100,54.49a2.58,2.58,0,0,1-4.44-2.63l7.86-13A9.62,9.62,0,0,0,92.84,24.5a9.53,9.53,0,0,0-5,3.06,9.42,9.42,0,0,0-2.54-2.23,9.64,9.64,0,0,0-13.21,3.26L57.59,52.65l0,0A2.88,2.88,0,0,1,55.78,54a2.93,2.93,0,0,1-3.22-4.36l.11-.19,6.54-10.84h0c.12-.2.23-.4.34-.6l5.3-8.78a3.22,3.22,0,1,0-5.51-3.32l-.8,1.33a10.31,10.31,0,0,0-2.73-2.43A10.07,10.07,0,0,0,42,28.2h0L31.63,45.4A10,10,0,0,0,47.87,57.11a9.2,9.2,0,0,0,2.37,2,9.31,9.31,0,0,0,4.82,1.35,9.42,9.42,0,0,0,8-4.53.21.21,0,0,1,0-.06l14.48-24a3.19,3.19,0,0,1,5.5,3.25l-11.3,18.7-.1.17a3.23,3.23,0,0,0,.56,4l0,0,.22.18a1.88,1.88,0,0,0,.23.16l0,0h0l.22.1a3.1,3.1,0,0,0,1.44.36,3.26,3.26,0,0,0,1.88-.6l0,0,.09-.08a3,3,0,0,0,.51-.5l0,0,.23-.33L88.58,38.54l.06-.11,3.77-6.24a3.19,3.19,0,0,1,2-1.45,3.23,3.23,0,0,1,2.42.36,3.19,3.19,0,0,1,1.08,4.39l-7.81,13,0,0a.25.25,0,0,0,0,.07l-.1.17a.83.83,0,0,0-.09.16h0l-.09.17a9,9,0,0,0,15.74,8.75A3.22,3.22,0,0,0,104.38,53.4Zm-66,.29a3.63,3.63,0,0,1-1.22-5l4.84-8h0l4.75-7.85.8-1.33A3.62,3.62,0,0,1,53.9,34.9L46.6,47a2,2,0,0,0-.17.32l-3.11,5.14h0A3.62,3.62,0,0,1,38.35,53.69Z"/></g></g></svg>